#!OML:ASF X:\für Bonn\!DataBase\2005_08_10_Bjorn_Final\c3d\bjorn.ASF
:FULLY-SPECIFIED
:DEGREES
31
root 0.290841 17.9736 2.47595 -173.608 -1.3958 178.147
lowerback 9.95496 1.73704 3.71118
upperback 7.38473 1.74118 -1.41574
thorax 2.30519 0.69504 -3.70108
lowerneck -20.9427 -2.01286 1.56951
upperneck 11.0629 -2.9149 -1.62289
head 6.72031 -1.49216 -1.11937
rclavicle -1.19271e-014 3.18055e-015
rhumerus 84.2316 0.651039 -72.6122
rradius 8.82424
rwrist 48.8748
rhand -9.84338 7.06278
rfingers 7.12502
rthumb 16.1345 -22.2856
lclavicle -1.19271e-014 3.18055e-015
lhumerus 86.8567 -8.25399 72.833
lradius 7.72902
lwrist -49.5281
lhand -19.1482 -6.27633
lfingers 7.12502
lthumb 7.16206 23.5825
rfemur -33.4517 -6.25589 15.9974
rtibia 61.4425
rfoot -25.7992 9.54738
rtoes -24.685
lfemur -32.4651 -0.0469834 -22.7039
ltibia 61.6624
lfoot -23.2949 7.25394
ltoes -22.8079
32
root 0.285004 17.8397 2.52362 -173.694 -1.41224 178.092
lowerback 10.6258 1.74172 3.68244
upperback 7.53007 1.71291 -1.43014
thorax 2.0917 0.656367 -3.71377
lowerneck -20.844 -2.02166 1.61824
upperneck 10.4579 -2.95967 -1.56527
head 6.50654 -1.51395 -1.10507
rclavicle 2.80286e-014 -2.06736e-014
rhumerus 84.4176 0.458053 -72.5335
rradius 8.88827
rwrist 48.5844
rhand -10.0587 7.15627
rfingers 7.12502
rthumb 15.9271 -22.2088
lclavicle 2.80286e-014 -2.06736e-014
lhumerus 87.1859 -8.17528 72.721
lradius 7.84206
lwrist -49.7661
lhand -19.0801 -6.25686
lfingers 7.12502
lthumb 7.22786 23.5997
rfemur -34.6922 -6.23258 15.861
rtibia 63.566
rfoot -26.1794 9.71719
rtoes -25.0698
lfemur -33.8593 -0.258426 -22.796
ltibia 64.0607
lfoot -23.5994 7.28118
ltoes -22.7818
33
root 0.278584 17.6966 2.57094 -173.758 -1.42515 178.001
lowerback 11.2421 1.74545 3.64129
upperback 7.69139 1.67713 -1.47905
thorax 1.92642 0.614491 -3.7531
lowerneck -20.7898 -2.01778 1.76885
upperneck 9.87954 -3.00731 -1.57843
head 6.30665 -1.54066 -1.13128
rclavicle -6.95746e-015 5.56597e-015
rhumerus 84.6309 0.223689 -72.4897
rradius 8.96411
rwrist 48.4146
rhand -10.2426 7.25074
rfingers 7.12502
rthumb 15.75 -22.1284
lclavicle -6.95746e-015 5.56597e-015
lhumerus 87.5376 -8.06324 72.5609
lradius 8.01106
lwrist -50.0839
lhand -18.8527 -6.20464
lfingers 7.12502
lthumb 7.44738 23.6443
rfemur -35.986 -6.2137 15.6733
rtibia 65.7494
rfoot -26.6101 9.92847
rtoes -25.397
lfemur -35.2783 -0.442169 -22.9325
ltibia 66.4678
lfoot -23.8914 7.35065
ltoes -23.0539
34
root 0.272219 17.5447 2.61754 -173.81 -1.46836 177.892
lowerback 11.8241 1.74262 3.55986
upperback 7.87222 1.62332 -1.50207
thorax 1.79735 0.561029 -3.73952
lowerneck -20.8404 -2.01217 1.85238
upperneck 9.39271 -3.04025 -1.56963
head 6.15529 -1.56164 -1.14066
rclavicle 3.56818e-014 -9.93923e-015
rhumerus 84.8937 0.0320002 -72.4168
rradius 9.02043
rwrist 48.4181
rhand -10.4857 7.32102
rfingers 7.12502
rthumb 15.5159 -22.0764
lclavicle 3.56818e-014 -9.93923e-015
lhumerus 87.9307 -7.89483 72.4335
lradius 8.07721
lwrist -50.123
lhand -18.8308 -6.27402
lfingers 7.12502
lthumb 7.46849 23.5741
rfemur -37.3229 -6.25741 15.4574
rtibia 67.9915
rfoot -27.1 10.1629
rtoes -25.8205
lfemur -36.7169 -0.627035 -23.0777
ltibia 68.87
lfoot -24.1712 7.34641
ltoes -23.2263
35
root 0.267267 17.3853 2.66333 -173.851 -1.5147 177.729
lowerback 12.4117 1.74321 3.41512
upperback 8.0397 1.56741 -1.53541
thorax 1.6499 0.503901 -3.70027
lowerneck -20.9577 -2.00446 1.94466
upperneck 9.02967 -3.0718 -1.56895
head 6.05445 -1.58158 -1.15628
rclavicle -1.50082e-014 -5.1684e-015
rhumerus 85.1634 -0.1761 -72.3389
rradius 9.03864
rwrist 48.6094
rhand -10.7551 7.4206
rfingers 7.12502
rthumb 15.2564 -21.9968
lclavicle -1.50082e-014 -5.1684e-015
lhumerus 88.3376 -7.6915 72.3059
lradius 8.04035
lwrist -49.8895
lhand -18.9043 -6.43248
lfingers 7.12502
lthumb 7.39754 23.4182
rfemur -38.6829 -6.32998 15.1817
rtibia 70.2672
rfoot -27.64 10.428
rtoes -26.261
lfemur -38.1638 -0.791629 -23.2797
ltibia 71.2771
lfoot -24.4497 7.39911
ltoes -23.869
36
root 0.261452 17.2187 2.70877 -173.932 -1.55812 177.584
lowerback 13.0262 1.74857 3.3175
upperback 8.24094 1.51127 -1.58397
thorax 1.52855 0.445915 -3.70335
lowerneck -21.2343 -1.98759 2.0905
upperneck 8.79471 -3.10556 -1.59475
head 6.01858 -1.60259 -1.19299
rclavicle -1.65985e-014 -5.96354e-016
rhumerus 85.4557 -0.440849 -72.2851
rradius 9.07747
rwrist 48.8965
rhand -11.1231 7.50116
rfingers 7.12502
rthumb 14.9019 -21.9428
lclavicle -1.65985e-014 -5.96354e-016
lhumerus 88.795 -7.46142 72.144
lradius 7.98157
lwrist -49.7826
lhand -18.9013 -6.5823
lfingers 7.12502
lthumb 7.40041 23.2683
rfemur -40.0252 -6.40662 14.9011
rtibia 72.5786
rfoot -28.1347 10.7691
rtoes -26.4999
lfemur -39.5684 -0.934464 -23.4613
ltibia 73.694
lfoot -24.717 7.45826
ltoes -24.7392
37
root 0.25588 17.0434 2.75376 -174.033 -1.65045 177.511
lowerback 13.6482 1.73171 3.28385
upperback 8.42924 1.43306 -1.58957
thorax 1.39057 0.378234 -3.69436
lowerneck -21.4957 -1.98775 2.14961
upperneck 8.65118 -3.14324 -1.56488
head 6.01181 -1.62217 -1.19922
rclavicle -1.09332e-015 -5.56597e-015
rhumerus 85.7258 -0.658959 -72.2098
rradius 9.14859
rwrist 49.2873
rhand -11.4225 7.54096
rfingers 7.12502
rthumb 14.6134 -21.9242
lclavicle -1.09332e-015 -5.56597e-015
lhumerus 89.1755 -7.21625 72.0168
lradius 7.92425
lwrist -49.9073
lhand -19.0131 -6.72036
lfingers 7.12502
lthumb 7.29254 23.134
rfemur -41.3571 -6.53767 14.7063
rtibia 74.917
rfoot -28.7088 11.053
rtoes -26.9296
lfemur -40.975 -1.07028 -23.5516
ltibia 76.1356
lfoot -24.9265 7.47512
ltoes -25.6509
38
root 0.250155 16.8586 2.79827 -174.127 -1.7108 177.48
lowerback 14.2215 1.72912 3.27778
upperback 8.64504 1.36957 -1.57854
thorax 1.31171 0.318019 -3.6832
lowerneck -21.8088 -1.98122 2.2142
upperneck 8.497 -3.17647 -1.54275
head 6.00931 -1.64132 -1.20907
rclavicle -3.29983e-014 1.90833e-014
rhumerus 85.9743 -0.867537 -72.1347
rradius 9.39821
rwrist 49.7475
rhand -11.6319 7.55191
rfingers 7.12502
rthumb 14.4117 -21.9277
lclavicle -3.29983e-014 1.90833e-014
lhumerus 89.517 -6.93473 71.895
lradius 7.99275
lwrist -50.2005
lhand -18.9883 -6.83371
lfingers 7.12502
lthumb 7.31647 23.0198
rfemur -42.7264 -6.65963 14.5382
rtibia 77.2888
rfoot -29.2276 11.4212
rtoes -27.2888
lfemur -42.4079 -1.12238 -23.5958
ltibia 78.6055
lfoot -25.1537 7.44899
ltoes -26.7236
39
root 0.245015 16.6649 2.84268 -174.212 -1.78079 177.463
lowerback 14.7694 1.73099 3.30002
upperback 8.84584 1.31719 -1.58168
thorax 1.2347 0.265773 -3.70317
lowerneck -21.8729 -1.97529 2.32842
upperneck 8.13642 -3.22315 -1.51655
head 5.90036 -1.66781 -1.22082
rclavicle 1.37161e-014 7.95139e-016
rhumerus 86.1444 -1.12401 -72.0808
rradius 9.76713
rwrist 50.1451
rhand -11.6426 7.58157
rfingers 7.12502
rthumb 14.4014 -21.8988
lclavicle 1.37161e-014 7.95139e-016
lhumerus 89.8159 -6.70912 71.7574
lradius 8.10344
lwrist -50.6309
lhand -18.9655 -6.91587
lfingers 7.12502
lthumb 7.33848 22.9369
rfemur -44.1367 -6.81363 14.3924
rtibia 79.6948
rfoot -29.7482 11.7619
rtoes -27.792
lfemur -43.8788 -1.12776 -23.6155
ltibia 81.1053
lfoot -25.3338 7.38412
ltoes -27.8351
40
root 0.239446 16.4634 2.88729 -174.284 -1.86708 177.426
lowerback 15.2778 1.71753 3.28273
upperback 9.0747 1.23231 -1.56627
thorax 1.20509 0.194077 -3.67548
lowerneck -21.9152 -1.93524 2.43904
upperneck 7.64132 -3.22747 -1.50967
head 5.74549 -1.68012 -1.23187
rclavicle -2.38542e-015 1.2921e-014
rhumerus 86.395 -1.33483 -72.0148
rradius 10.1414
rwrist 50.5723
rhand -11.566 7.61403
rfingers 7.12502
rthumb 14.4752 -21.8611
lclavicle -2.38542e-015 1.2921e-014
lhumerus 90.1096 -6.40133 71.6344
lradius 8.24022
lwrist -51.1274
lhand -18.9247 -6.91869
lfingers 7.12502
lthumb 7.3778 22.9327
rfemur -45.5908 -7.01805 14.2195
rtibia 82.1346
rfoot -30.2037 12.148
rtoes -28.0902
lfemur -45.3878 -1.12128 -23.6597
ltibia 83.6186
lfoot -25.495 7.35983
ltoes -29.1893
